<?xml version="1.0" standalone="no"?>
<!DOCTYPE svg PUBLIC "-//W3C//DTD SVG 1.0//EN" "http://www.w3.org/TR/2001/REC-SVG-20010904/DTD/svg10.dtd">
<svg xmlns="http://www.w3.org/2000/svg" xmlns:xlink="http://www.w3.org/1999/xlink" id="body_1" width="24" height="24">

<g transform="matrix(0.48 0 0 0.48 0 0)">
	<g>
	</g>
    <path d="M14 4C 8.488667 4 4 8.488667 4 14L4 14L4 36C 4 41.511333 8.488667 46 14 46L14 46L36 46C 41.511333 46 46 41.511333 46 36L46 36L46 14C 46 8.488667 41.511333 4 36 4L36 4L14 4zM13 16L37 16C 37.18 16 37.349766 16.020311 37.509766 16.070312L37.509766 16.070312L27.679688 25.890625C 26.199688 27.370625 23.790546 27.370625 22.310547 25.890625L22.310547 25.890625L12.490234 16.070312C 12.650234 16.020311 12.82 16 13 16zM11.070312 17.490234L18.589844 25L11.070312 32.509766C 11.020312 32.349766 11 32.18 11 32L11 32L11 18C 11 17.82 11.020312 17.650234 11.070312 17.490234zM38.929688 17.490234C 38.979687 17.650234 39 17.82 39 18L39 18L39 32C 39 32.18 38.979687 32.349766 38.929688 32.509766L38.929688 32.509766L31.40039 25L38.929688 17.490234zM20 26.410156L20.890625 27.310547C 22.020624 28.440548 23.510235 29 24.990234 29C 26.480234 29 27.959845 28.440548 29.089844 27.310547L29.089844 27.310547L29.990234 26.410156L37.509766 33.929688C 37.349766 33.979687 37.18 34 37 34L37 34L13 34C 12.82 34 12.650234 33.979687 12.490234 33.929688L12.490234 33.929688L20 26.410156z" stroke="none" fill="#000000" fill-rule="nonzero" />
</g>
</svg>